<?xml version="1.0" encoding="UTF-8" standalone="no"?>
<!DOCTYPE svg PUBLIC "-//W3C//DTD SVG 1.1//EN" "http://www.w3.org/Graphics/SVG/1.1/DTD/svg11.dtd">
<svg width="100%" height="100%" viewBox="0 0 250 250" version="1.1" xmlns="http://www.w3.org/2000/svg" xmlns:xlink="http://www.w3.org/1999/xlink" xml:space="preserve" xmlns:serif="http://www.serif.com/" style="fill-rule:evenodd;clip-rule:evenodd;stroke-linejoin:round;stroke-miterlimit:2;">
    <g transform="matrix(-0.40052,1.49476,-1.49476,-0.40052,353.782,-6.54299)">
        <g id="logo">
            <g>
                <path d="M109.77,115.704C111.481,116.183 112.81,117.533 113.26,119.252C113.711,120.97 113.216,122.799 111.959,124.055C100.011,136.004 73.504,162.511 61.555,174.459C60.299,175.716 58.47,176.211 56.752,175.76C55.033,175.31 53.683,173.981 53.204,172.27C48.603,155.813 38.315,119.017 33.641,102.303C33.155,100.564 33.644,98.698 34.921,97.421C36.198,96.144 38.064,95.655 39.803,96.141C56.517,100.815 93.313,111.103 109.77,115.704Z" style="fill:rgb(253,154,0);"/>
                <path d="M182.786,77.118C182.171,75.547 180.805,74.392 179.154,74.046C177.502,73.701 175.788,74.212 174.595,75.405C164.299,85.701 141.937,108.063 131.114,118.886C129.851,120.149 129.358,121.988 129.819,123.713C130.279,125.437 131.625,126.785 133.348,127.25C149.318,131.553 184.105,140.928 200.986,145.477C202.808,145.968 204.752,145.391 206.011,143.985C207.271,142.579 207.631,140.584 206.943,138.826C200.774,123.067 188.338,91.299 182.786,77.118Z" style="fill:rgb(0,201,81);"/>
            </g>
        </g>
    </g>
</svg>
