<?xml version="1.0" encoding="UTF-8" standalone="no"?>
<!DOCTYPE svg PUBLIC "-//W3C//DTD SVG 1.1//EN" "http://www.w3.org/Graphics/SVG/1.1/DTD/svg11.dtd">
<svg width="100%" height="100%" viewBox="0 0 250 250" version="1.1" xmlns="http://www.w3.org/2000/svg" xmlns:xlink="http://www.w3.org/1999/xlink" xml:space="preserve" xmlns:serif="http://www.serif.com/" style="fill-rule:evenodd;clip-rule:evenodd;stroke-linejoin:round;stroke-miterlimit:2;">
    <g id="ico" transform="matrix(0.750713,-0.750713,0.750713,0.750713,-58.4711,121.471)">
        <g transform="matrix(0.591292,0,0,0.591292,51.0885,51.0885)">
            <circle cx="125" cy="125" r="125" style="fill:rgb(254,243,198);"/>
            <path d="M125,0C193.989,0 250,56.011 250,125C250,193.989 193.989,250 125,250C56.011,250 -0,193.989 -0,125C-0,56.011 56.011,0 125,0ZM125,19.912C183,19.912 230.088,67 230.088,125C230.088,183 183,230.088 125,230.088C67,230.088 19.912,183 19.912,125C19.912,67 67,19.912 125,19.912L125,19.912Z" style="fill:rgb(254,230,133);"/>
        </g>
        <g transform="matrix(1,0,0,1,3.89846,0)">
            <g transform="matrix(1.37403,0,0,1.37403,-45.0228,-46.7285)">
                <path d="M112.361,116.428C113.534,116.756 114.444,117.682 114.753,118.86C115.062,120.038 114.723,121.292 113.861,122.153C102.508,133.506 71.006,165.008 59.653,176.361C58.792,177.223 57.538,177.562 56.36,177.253C55.182,176.944 54.256,176.034 53.928,174.861C49.558,159.23 37.331,115.5 32.889,99.613C32.556,98.421 32.891,97.142 33.767,96.267C34.642,95.391 35.921,95.056 37.113,95.389C53,99.831 96.73,112.058 112.361,116.428Z" style="fill:rgb(253,154,0);"/>
            </g>
            <g transform="matrix(1.37403,0,0,1.37403,-45.0228,-46.7285)">
                <path d="M181.91,74.879C181.489,73.802 180.552,73.011 179.42,72.774C178.288,72.537 177.113,72.887 176.295,73.705C166.433,83.567 139.587,110.413 129.191,120.809C128.326,121.674 127.987,122.935 128.303,124.117C128.619,125.3 129.541,126.224 130.723,126.542C146.017,130.664 187.779,141.918 203.996,146.288C205.245,146.625 206.577,146.229 207.44,145.265C208.304,144.302 208.551,142.934 208.079,141.729C202.146,126.572 187.218,88.439 181.91,74.879Z" style="fill:rgb(0,201,81);"/>
            </g>
        </g>
    </g>
</svg>
